<?xml version="1.0" encoding="utf-8"?>
<!-- Generator: Adobe Illustrator 24.1.2, SVG Export Plug-In . SVG Version: 6.00 Build 0)  -->
<svg version="1.1" id="Layer_1" xmlns="http://www.w3.org/2000/svg" xmlns:xlink="http://www.w3.org/1999/xlink" x="0px" y="0px"
	 viewBox="0 0 1000 856.9" style="enable-background:new 0 0 1000 856.9;" xml:space="preserve">
<style type="text/css">
	.st0{fill:#FF3BFF;}
	.st1{enable-background:new    ;}
	.st2{fill:#FFFFFF;}
</style>
<rect x="-1222.7" y="-186.2" class="st0" width="1002.1" height="1000"/>
<g class="st1">
	<path class="st2" d="M154.6,751.5h190.5v-5.4C222.3,677,154,564.1,154.6,411.3C154,187.1,304.9,27.8,515,27.8
		c208.9,0,360.4,159.9,360.4,383.5c-0.6,152.3-68.9,265.7-190.5,334.9v5.4h190.5v69.1H588.4v-88.6C702,682.9,795,569.5,795,412.4
		c0.6-175-115.4-312.2-280.1-312.2c-165.9,0-281.2,137.2-281.2,312.2c0,156.6,93.5,270.6,207.7,319.7v88.6H154.6V751.5z"/>
</g>
</svg>
